<?xml version="1.0" encoding="UTF-8"?>
<svg id="Layer_1" data-name="Layer 1" xmlns="http://www.w3.org/2000/svg" viewBox="0 0 200 200">
  <defs>
    <style>
      .cls-1 {
        fill: #fff;
      }
    </style>
  </defs>
  <path class="cls-1" d="m76.96,72.23c0-6.21-5.06-11.27-11.27-11.27h-5.25c-6.21,0-11.27,5.06-11.27,11.27v20.65s0,33.97,0,33.97c0,6.21,5.06,11.27,11.27,11.27h5.25c6.21,0,11.27-5.06,11.27-11.27v-20.58h26.31c3.72,0,6.77-3.01,6.77-6.77s-3.01-6.77-6.77-6.77h-26.31v-20.5Z"/>
  <path class="cls-1" d="m28.81,84.02v4.2c0,2.49-2.01,4.5-4.5,4.5s-4.5,2.01-4.5,4.5v4.58c0,2.49,2.01,4.5,4.5,4.5s4.5,2.01,4.5,4.5v4.2c0,2.49,2.01,4.5,4.5,4.5h4.58c2.49,0,4.5-2.01,4.5-4.5v-30.96c0-2.49-2.01-4.5-4.5-4.5h-4.57c-2.49-.03-4.5,1.98-4.5,4.47h0Z"/>
  <path class="cls-1" d="m141.3,61.48c-1.08-.34-2.2-.52-3.39-.52h-5.25c-6.21,0-11.27,5.06-11.27,11.27v54.62c0,6.21,5.06,11.27,11.27,11.27h5.25c6.21,0,11.27-5.06,11.27-11.27v-54.62c.04-5.06-3.28-9.34-7.89-10.75h0Z"/>
  <path class="cls-1" d="m169.54,87.6v-2.9c0-2.83-2.31-5.13-5.13-5.13h-3.24c-2.83,0-5.13,2.31-5.13,5.13v29.62c0,2.83,2.31,5.13,5.13,5.13h3.24c2.83,0,5.13-2.31,5.13-5.13v-2.9c0-2.83,2.31-5.13,5.13-5.13s5.13-2.31,5.13-5.13v-3.24c0-2.83-2.31-5.13-5.13-5.13-2.83-.04-5.13-2.34-5.13-5.17h0Z"/>
</svg>